<svg width="457" height="555" viewBox="0 0 457 555" fill="none" xmlns="http://www.w3.org/2000/svg">
<path d="M94.2337 434.448C94.014 434.668 93.6845 434.777 93.4649 434.997C91.5978 434.997 89.7307 434.887 87.9734 434.777C87.9734 440.377 87.9734 446.086 87.9734 451.685C90.0601 451.795 92.1469 451.795 94.3435 451.905C94.3435 450.478 94.3435 449.05 94.3435 447.623C96.4302 447.623 98.517 447.623 100.714 447.623C100.714 446.196 100.714 444.769 100.714 443.341C98.6268 443.341 96.5401 443.341 94.3435 443.341C94.3435 440.706 94.3435 438.071 94.3435 435.436C94.5632 435.217 94.8926 435.107 95.1123 434.887C99.0661 434.887 103.02 434.777 106.974 434.668C106.974 433.24 106.974 431.813 106.974 430.386C102.8 430.605 98.517 430.715 94.3435 430.605C94.2337 431.923 94.2337 433.131 94.2337 434.448Z" fill="black"/>
<path d="M113.234 430.056C113.234 435.656 113.234 441.365 113.234 446.964C115.101 446.855 116.968 446.635 118.726 446.415C118.945 446.525 119.275 446.745 119.494 446.855C119.494 448.062 119.494 449.38 119.494 450.588C123.668 450.148 127.951 449.599 132.125 448.941C132.125 441.914 132.125 434.778 132.125 427.751C130.038 428.08 127.951 428.41 125.755 428.629C125.755 434.229 125.755 439.938 125.755 445.537C123.888 445.757 122.13 445.976 120.263 446.196C120.044 446.086 119.714 445.867 119.494 445.757C119.494 440.267 119.494 434.778 119.494 429.398C117.408 429.727 115.321 429.837 113.234 430.056Z" fill="black"/>
<path d="M151.125 445.427C151.125 439.828 151.125 434.119 151.125 428.519C153.212 428.08 155.299 427.531 157.495 427.092C157.495 425.665 157.495 424.237 157.495 422.81C151.125 424.347 144.865 425.665 138.495 426.763C138.495 428.19 138.495 429.617 138.495 431.045C140.582 430.715 142.668 430.276 144.865 429.837C144.865 435.436 144.865 441.145 144.865 446.745C146.842 446.306 149.039 445.866 151.125 445.427Z" fill="black"/>
<path d="M163.756 421.273C163.756 426.872 163.756 432.582 163.756 438.181C165.623 437.742 167.49 437.193 169.247 436.754C169.467 436.864 169.796 436.973 170.016 437.083C170.016 438.291 170.016 439.608 170.016 440.816C174.189 439.718 178.473 438.51 182.646 437.303C182.646 430.276 182.646 423.139 182.646 416.113C180.559 416.771 178.473 417.32 176.276 417.979C176.276 423.579 176.276 429.288 176.276 434.887C174.409 435.436 172.652 435.875 170.785 436.424C170.565 436.315 170.236 436.205 170.016 436.095C170.016 430.605 170.016 425.116 170.016 419.736C167.929 420.175 165.842 420.724 163.756 421.273Z" fill="black"/>
<path d="M195.277 412.16C195.277 413.368 195.277 414.576 195.277 415.893C195.057 416.113 194.727 416.442 194.508 416.662C192.641 417.211 190.774 417.76 189.016 418.418C189.016 424.018 189.016 429.727 189.016 435.326C191.103 434.668 193.19 434.009 195.386 433.35C195.386 431.923 195.386 430.496 195.386 429.068C197.254 428.519 199.121 427.861 200.878 427.312C201.098 427.421 201.427 427.531 201.647 427.531C201.647 428.739 201.647 430.056 201.647 431.264C203.733 430.605 205.82 429.947 208.017 429.178C208.017 427.751 208.017 426.323 208.017 424.896C206.15 425.445 204.392 426.104 202.525 426.653C202.306 426.543 201.976 426.433 201.757 426.323C201.757 425.226 201.757 424.237 201.757 423.139C201.976 422.92 202.306 422.591 202.525 422.371C204.392 421.822 206.15 421.163 208.017 420.614C208.017 417.76 208.017 415.015 208.017 412.16C206.15 412.709 204.392 413.368 202.525 413.917C202.306 413.807 201.976 413.697 201.757 413.588C201.757 412.38 201.757 411.172 201.757 409.855C199.45 410.843 197.363 411.501 195.277 412.16ZM201.647 422.371C201.427 422.591 201.098 422.92 200.878 423.139C199.011 423.688 197.144 424.347 195.386 424.896C195.386 422.261 195.386 419.626 195.386 416.991C195.606 416.772 195.936 416.442 196.155 416.223C197.693 415.674 199.34 415.234 200.878 414.685C201.098 414.795 201.427 414.905 201.647 414.905C201.647 417.43 201.647 419.846 201.647 422.371Z" fill="black"/>
<path d="M220.537 421.493C220.537 422.7 220.537 424.018 220.537 425.225C224.711 423.798 228.994 422.371 233.168 421.053C233.168 419.626 233.168 418.199 233.168 416.772C229.214 418.089 225.26 419.407 221.306 420.724C221.087 420.614 220.757 420.504 220.537 420.504C220.537 419.297 220.537 418.089 220.537 416.772C222.624 416.113 224.711 415.344 226.908 414.685C226.908 413.258 226.908 411.831 226.908 410.404C224.821 411.062 222.734 411.831 220.537 412.49C220.537 411.282 220.537 409.964 220.537 408.757C220.757 408.537 221.087 408.208 221.306 407.988C225.26 406.671 229.214 405.353 233.168 404.036C233.168 402.608 233.168 401.181 233.168 399.754C228.994 401.181 224.711 402.608 220.537 403.926C220.537 405.134 220.537 406.341 220.537 407.659C220.318 407.878 219.988 408.208 219.769 408.427C217.901 409.086 216.034 409.635 214.277 410.294C214.277 414.576 214.277 418.748 214.277 423.03C216.144 422.371 218.011 421.822 219.769 421.163C219.988 421.273 220.318 421.383 220.537 421.493Z" fill="black"/>
<path d="M100.604 466.947C98.517 466.947 96.4302 466.947 94.2336 466.947C94.2336 465.519 94.2336 464.092 94.2336 462.665C92.1469 462.665 90.0601 462.555 87.8635 462.445C87.8635 469.472 87.8635 476.608 87.8635 483.635C89.9503 483.745 92.037 483.745 94.2336 483.855C94.2336 481 94.2336 478.255 94.2336 475.401C96.3204 475.401 98.4071 475.401 100.604 475.401C100.604 478.255 100.604 481 100.604 483.855C102.69 483.855 104.777 483.745 106.974 483.635C106.974 476.608 106.974 469.472 106.974 462.445C104.887 462.555 102.8 462.665 100.604 462.665C100.604 464.092 100.604 465.519 100.604 466.947Z" fill="black"/>
<path d="M119.604 465.19C119.385 465.409 119.055 465.629 118.835 465.849C116.968 466.068 115.101 466.178 113.344 466.398C113.344 470.679 113.344 474.852 113.344 479.133C115.211 479.024 117.078 478.804 118.835 478.585C119.055 478.694 119.385 478.914 119.604 479.024C119.604 480.231 119.604 481.549 119.604 482.757C123.778 482.317 128.061 481.769 132.235 481.11C132.235 479.682 132.235 478.255 132.235 476.828C128.281 477.487 124.327 477.926 120.373 478.365C120.153 478.255 119.824 478.036 119.604 477.926C119.604 476.718 119.604 475.51 119.604 474.193C121.691 473.973 123.778 473.754 125.974 473.424C125.974 471.997 125.974 470.57 125.974 469.142C123.888 469.472 121.801 469.691 119.604 469.911C119.604 468.703 119.604 467.386 119.604 466.178C119.824 465.958 120.153 465.739 120.373 465.519C124.327 465.08 128.281 464.531 132.235 463.982C132.235 462.555 132.235 461.128 132.235 459.7C128.061 460.359 123.778 460.908 119.604 461.347C119.604 462.665 119.604 463.872 119.604 465.19Z" fill="black"/>
<path d="M151.125 459.92C151.125 458.712 151.125 457.504 151.125 456.187C149.039 456.626 146.952 457.065 144.755 457.504C144.755 458.712 144.755 459.92 144.755 461.237C144.535 461.457 144.206 461.677 143.986 461.896C142.119 462.225 140.252 462.555 138.495 462.884C138.495 468.484 138.495 474.193 138.495 479.792C142.668 479.024 146.952 478.145 151.125 477.267C151.125 476.059 151.125 474.742 151.125 473.534C151.345 473.315 151.674 473.095 151.894 472.875C153.761 472.436 155.518 471.997 157.386 471.558C157.386 467.276 157.386 463.104 157.386 458.822C155.518 459.261 153.761 459.7 151.894 460.139C151.674 460.139 151.455 460.03 151.125 459.92ZM151.125 472.656C150.906 472.875 150.576 473.095 150.356 473.315C148.489 473.754 146.622 474.083 144.865 474.522C144.865 470.46 144.865 466.398 144.865 462.335C145.085 462.116 145.414 461.896 145.634 461.677C147.171 461.347 148.819 461.018 150.356 460.688C150.576 460.798 150.906 460.908 151.125 461.018C151.125 464.86 151.125 468.703 151.125 472.656Z" fill="black"/>
<path d="M163.756 457.504C165.842 456.956 167.929 456.407 170.126 455.858C170.126 460.139 170.126 464.312 170.126 468.593C168.039 469.142 165.952 469.691 163.756 470.24C163.756 471.668 163.756 473.095 163.756 474.522C170.126 472.875 176.386 471.119 182.756 469.362C182.756 467.935 182.756 466.507 182.756 465.08C180.669 465.739 178.583 466.288 176.386 466.947C176.386 462.665 176.386 458.493 176.386 454.211C178.473 453.662 180.559 453.003 182.756 452.344C182.756 450.917 182.756 449.49 182.756 448.062C176.386 449.929 170.126 451.685 163.756 453.223C163.756 454.65 163.756 456.077 163.756 457.504Z" fill="black"/>
<path d="M201.647 445.866C201.647 444.659 201.647 443.451 201.647 442.134C199.56 442.792 197.473 443.451 195.277 444.11C195.277 445.318 195.277 446.525 195.277 447.843C195.057 448.062 194.727 448.392 194.508 448.611C192.641 449.16 190.774 449.709 189.016 450.368C189.016 455.967 189.016 461.677 189.016 467.276C191.103 466.617 193.19 465.958 195.386 465.3C195.386 463.872 195.386 462.445 195.386 461.018C197.473 460.359 199.56 459.7 201.757 459.042C201.757 460.469 201.757 461.896 201.757 463.323C203.843 462.665 205.93 462.006 208.127 461.237C208.127 455.638 208.127 449.929 208.127 444.329C206.26 444.878 204.502 445.537 202.635 446.086C202.196 446.086 201.976 445.976 201.647 445.866ZM201.647 454.869C199.56 455.528 197.473 456.187 195.277 456.846C195.277 454.211 195.277 451.576 195.277 448.941C195.496 448.721 195.826 448.392 196.045 448.172C197.583 447.623 199.23 447.184 200.768 446.635C200.988 446.745 201.317 446.855 201.537 446.855C201.647 449.599 201.647 452.234 201.647 454.869Z" fill="black"/>
<path d="M100.604 498.347C100.604 497.139 100.604 495.932 100.604 494.614C98.517 494.614 96.4303 494.614 94.2337 494.614C94.2337 495.822 94.2337 497.03 94.2337 498.347C94.014 498.567 93.6845 498.676 93.4649 498.896C91.5978 498.896 89.7307 498.786 87.9734 498.676C87.9734 504.276 87.9734 509.985 87.9734 515.585C90.0601 515.694 92.1469 515.694 94.3435 515.804C94.3435 514.377 94.3435 512.949 94.3435 511.522C96.4303 511.522 98.517 511.522 100.714 511.522C100.714 512.949 100.714 514.377 100.714 515.804C102.8 515.804 104.887 515.694 107.084 515.585C107.084 509.985 107.084 504.276 107.084 498.676C105.217 498.786 103.459 498.786 101.592 498.896C101.153 498.676 100.823 498.567 100.604 498.347ZM100.604 507.35C98.517 507.35 96.4303 507.35 94.2337 507.35C94.2337 504.715 94.2337 502.08 94.2337 499.445C94.4533 499.225 94.7828 499.116 95.0025 498.896C96.5401 498.896 98.1875 498.896 99.7251 498.896C99.9448 499.116 100.274 499.225 100.494 499.445C100.604 502.08 100.604 504.715 100.604 507.35Z" fill="black"/>
<path d="M125.865 496.371C125.865 495.163 125.865 493.955 125.865 492.638C123.778 492.967 121.691 493.187 119.494 493.406C119.494 494.614 119.494 495.822 119.494 497.139C119.275 497.359 118.945 497.579 118.726 497.798C116.858 498.018 114.991 498.128 113.234 498.347C113.234 503.947 113.234 509.656 113.234 515.255C115.321 515.036 117.408 514.926 119.604 514.706C119.604 513.279 119.604 511.852 119.604 510.424C121.471 510.205 123.338 509.985 125.096 509.766C125.315 509.875 125.645 510.095 125.865 510.205C125.865 511.412 125.865 512.73 125.865 513.938C127.951 513.608 130.038 513.389 132.235 513.059C132.235 511.632 132.235 510.205 132.235 508.777C130.368 509.107 128.61 509.326 126.743 509.546C126.523 509.436 126.194 509.217 125.974 509.107C125.974 508.009 125.974 507.021 125.974 505.923C126.194 505.703 126.523 505.484 126.743 505.264C128.61 505.044 130.368 504.715 132.235 504.496C132.235 501.641 132.235 498.896 132.235 496.041C130.368 496.371 128.61 496.59 126.743 496.81C126.414 496.7 126.194 496.59 125.865 496.371ZM125.865 504.825C125.645 505.044 125.315 505.264 125.096 505.484C123.229 505.703 121.362 505.923 119.604 506.142C119.604 503.507 119.604 500.872 119.604 498.237C119.824 498.018 120.153 497.798 120.373 497.579C121.911 497.359 123.558 497.249 125.096 497.03C125.315 497.139 125.645 497.359 125.865 497.469C125.865 499.884 125.865 502.409 125.865 504.825Z" fill="black"/>
<path d="M138.495 494.944C140.582 494.614 142.668 494.175 144.865 493.736C144.865 499.335 144.865 505.045 144.865 510.644C146.952 510.205 149.038 509.766 151.235 509.326C151.235 503.727 151.235 498.018 151.235 492.418C153.322 491.979 155.409 491.43 157.605 490.991C157.605 489.564 157.605 488.136 157.605 486.709C151.235 488.246 144.975 489.564 138.605 490.662C138.495 492.199 138.495 493.516 138.495 494.944Z" fill="black"/>
<path d="M170.016 487.258C169.796 487.478 169.467 487.807 169.247 488.027C167.38 488.466 165.513 489.015 163.756 489.454C163.756 490.881 163.756 492.309 163.756 493.736C165.623 493.297 167.49 492.748 169.247 492.309C169.467 492.418 169.796 492.528 170.016 492.638C170.016 493.846 170.016 495.163 170.016 496.371C171.883 495.822 173.75 495.383 175.507 494.834C175.727 494.944 176.056 495.053 176.276 495.163C176.276 496.261 176.276 497.249 176.276 498.347C176.056 498.567 175.727 498.896 175.507 499.116C171.553 500.214 167.6 501.312 163.646 502.3C163.646 503.727 163.646 505.154 163.646 506.582C167.819 505.484 172.103 504.386 176.276 503.178C176.276 501.97 176.276 500.653 176.276 499.445C176.496 499.226 176.825 498.896 177.045 498.677C178.912 498.128 180.669 497.579 182.536 497.03C182.536 495.602 182.536 494.175 182.536 492.748C180.669 493.297 178.912 493.846 177.045 494.395C176.825 494.285 176.496 494.175 176.276 494.065C176.276 492.858 176.276 491.65 176.276 490.332C174.409 490.881 172.652 491.32 170.785 491.869C170.565 491.76 170.236 491.65 170.016 491.54C170.016 490.442 170.016 489.454 170.016 488.356C170.236 488.136 170.565 487.917 170.785 487.588C174.739 486.49 178.692 485.392 182.646 484.294C182.646 482.866 182.646 481.439 182.646 480.012C178.473 481.22 174.189 482.427 170.016 483.525C170.016 484.843 170.016 486.05 170.016 487.258Z" fill="black"/>
<path d="M94.2337 530.407C94.014 530.626 93.6845 530.736 93.4649 530.955C91.5978 530.955 89.7307 530.846 87.9734 530.736C87.9734 536.335 87.9734 542.044 87.9734 547.644C90.0601 547.754 92.1469 547.754 94.3435 547.863C94.3435 546.436 94.3435 545.009 94.3435 543.582C96.4302 543.582 98.517 543.582 100.714 543.582C100.714 542.154 100.714 540.727 100.714 539.3C98.6268 539.3 96.5401 539.3 94.3435 539.3C94.3435 536.665 94.3435 534.03 94.3435 531.395C94.5632 531.175 94.8926 531.065 95.1123 530.846C99.0661 530.846 103.02 530.736 106.974 530.626C106.974 529.199 106.974 527.772 106.974 526.344C102.8 526.564 98.517 526.674 94.3435 526.564C94.2337 527.881 94.2337 529.199 94.2337 530.407Z" fill="black"/>
<path d="M119.494 529.199C119.275 529.418 118.945 529.638 118.726 529.858C116.859 530.077 114.991 530.187 113.234 530.406C113.234 534.688 113.234 538.86 113.234 543.142C115.101 543.033 116.968 542.813 118.726 542.593C118.945 542.703 119.275 542.923 119.494 543.033C119.494 544.24 119.494 545.558 119.494 546.765C123.668 546.326 127.951 545.777 132.125 545.119C132.125 543.691 132.125 542.264 132.125 540.837C128.171 541.495 124.217 541.935 120.263 542.374C120.044 542.264 119.714 542.044 119.494 541.935C119.494 540.727 119.494 539.519 119.494 538.202C121.581 537.982 123.668 537.763 125.865 537.433C125.865 536.006 125.865 534.579 125.865 533.151C123.778 533.481 121.691 533.7 119.494 533.92C119.494 532.712 119.494 531.395 119.494 530.187C119.714 529.967 120.044 529.748 120.263 529.528C124.217 529.089 128.171 528.54 132.125 527.991C132.125 526.564 132.125 525.136 132.125 523.709C127.951 524.368 123.668 524.917 119.494 525.356C119.494 526.674 119.494 527.881 119.494 529.199Z" fill="black"/>
<path d="M144.755 525.246C144.535 525.466 144.206 525.685 143.986 525.905C142.119 526.234 140.252 526.564 138.495 526.893C138.495 528.32 138.495 529.748 138.495 531.175C140.362 530.846 142.229 530.516 143.986 530.187C144.206 530.297 144.535 530.406 144.755 530.516C144.755 531.724 144.755 533.041 144.755 534.249C146.622 533.92 148.489 533.481 150.247 533.041C150.466 533.151 150.796 533.261 151.015 533.371C151.015 534.469 151.015 535.457 151.015 536.555C150.796 536.774 150.466 536.994 150.247 537.214C146.293 538.092 142.339 538.86 138.385 539.519C138.385 540.946 138.385 542.374 138.385 543.801C142.559 543.033 146.842 542.154 151.015 541.276C151.015 540.068 151.015 538.751 151.015 537.543C151.235 537.323 151.565 537.104 151.784 536.884C153.651 536.445 155.409 536.006 157.276 535.567C157.276 534.139 157.276 532.712 157.276 531.285C155.409 531.724 153.651 532.163 151.784 532.602C151.565 532.492 151.235 532.383 151.015 532.273C151.015 531.065 151.015 529.857 151.015 528.54C149.148 528.979 147.391 529.309 145.524 529.748C145.304 529.638 144.975 529.528 144.755 529.418C144.755 528.32 144.755 527.332 144.755 526.234C144.975 526.015 145.304 525.795 145.524 525.576C149.478 524.807 153.432 523.929 157.386 522.941C157.386 521.513 157.386 520.086 157.386 518.659C153.212 519.647 148.929 520.635 144.755 521.403C144.755 522.721 144.755 524.038 144.755 525.246Z" fill="black"/>
<path d="M163.756 521.404C165.842 520.855 167.929 520.306 170.126 519.757C170.126 525.356 170.126 531.065 170.126 536.665C172.212 536.116 174.299 535.567 176.496 534.908C176.496 529.309 176.496 523.599 176.496 518C178.583 517.451 180.669 516.792 182.866 516.133C182.866 514.706 182.866 513.279 182.866 511.852C176.496 513.718 170.236 515.475 163.865 517.012C163.756 518.659 163.756 520.086 163.756 521.404Z" fill="black"/>
<path d="M189.016 514.377C191.103 513.718 193.19 513.059 195.386 512.401C195.386 516.683 195.386 520.855 195.386 525.137C193.3 525.795 191.213 526.454 189.016 527.113C189.016 528.54 189.016 529.967 189.016 531.395C195.386 529.418 201.647 527.442 208.017 525.356C208.017 523.929 208.017 522.502 208.017 521.074C205.93 521.733 203.843 522.392 201.647 523.16C201.647 518.878 201.647 514.706 201.647 510.424C203.733 509.766 205.82 509.107 208.017 508.338C208.017 506.911 208.017 505.484 208.017 504.056C201.647 506.142 195.386 508.119 189.016 510.095C189.016 511.522 189.016 512.95 189.016 514.377Z" fill="black"/>
<path d="M226.908 514.267C226.688 514.487 226.358 514.816 226.139 515.036C224.601 515.585 222.954 516.133 221.416 516.573C221.196 516.463 220.867 516.353 220.647 516.353C220.647 510.863 220.647 505.374 220.647 499.994C218.56 500.653 216.474 501.421 214.277 502.08C214.277 507.679 214.277 513.389 214.277 518.988C216.144 518.329 218.011 517.78 219.769 517.122C219.988 517.231 220.318 517.341 220.537 517.341C220.537 518.549 220.537 519.866 220.537 521.074C222.624 520.415 224.711 519.647 226.908 518.988C226.908 517.78 226.908 516.463 226.908 515.255C227.127 515.036 227.457 514.706 227.676 514.487C229.543 513.828 231.301 513.279 233.168 512.62C233.168 507.021 233.168 501.311 233.168 495.712C231.081 496.371 228.994 497.139 226.798 497.798C226.907 503.288 226.908 508.777 226.908 514.267Z" fill="black"/>
<path d="M252.168 493.187C252.168 491.979 252.168 490.771 252.168 489.454C250.081 490.113 247.995 490.772 245.798 491.54C245.798 492.748 245.798 493.955 245.798 495.273C245.578 495.493 245.249 495.822 245.029 496.042C243.162 496.7 241.295 497.249 239.538 497.908C239.538 503.507 239.538 509.217 239.538 514.816C241.625 514.157 243.711 513.389 245.908 512.73C245.908 511.303 245.908 509.875 245.908 508.448C247.995 507.789 250.081 507.021 252.278 506.362C252.278 507.789 252.278 509.217 252.278 510.644C254.365 509.985 256.452 509.326 258.648 508.668C258.648 503.068 258.648 497.359 258.648 491.76C256.781 492.309 255.024 492.967 253.157 493.516C252.717 493.407 252.388 493.297 252.168 493.187ZM252.168 502.19C250.081 502.849 247.995 503.507 245.798 504.276C245.798 501.641 245.798 499.006 245.798 496.371C246.018 496.151 246.347 495.822 246.567 495.602C248.105 495.053 249.752 494.614 251.29 494.065C251.509 494.175 251.839 494.285 252.058 494.285C252.168 496.92 252.168 499.555 252.168 502.19Z" fill="black"/>
<path d="M271.059 499.994C271.059 494.504 271.059 489.015 271.059 483.635C268.972 484.294 266.885 484.953 264.689 485.611C264.689 491.211 264.689 496.92 264.689 502.519C266.556 501.97 268.423 501.421 270.18 500.872C270.4 500.982 270.729 501.092 270.949 501.202C270.949 502.41 270.949 503.727 270.949 504.935C275.122 503.727 279.406 502.41 283.579 501.312C283.579 499.884 283.579 498.457 283.579 497.03C279.625 498.128 275.672 499.226 271.718 500.433C271.608 500.214 271.388 500.104 271.059 499.994Z" fill="black"/>
<path d="M292.915 262.623C286.655 264.27 280.285 266.027 274.024 267.783C274.024 268.442 274.024 269.211 274.024 269.869C280.285 268.003 286.655 266.246 292.915 264.709C292.915 263.941 292.915 263.282 292.915 262.623Z" fill="black"/>
<path d="M318.505 469.472C312.245 470.57 305.875 471.887 299.615 473.424C299.615 474.083 299.615 474.852 299.615 475.51C305.875 473.973 312.245 472.656 318.505 471.558C318.505 470.899 318.505 470.131 318.505 469.472Z" fill="black"/>
<path d="M239.538 166.555C242.284 165.677 245.029 164.688 247.775 163.81C247.775 161.395 247.775 159.089 247.775 156.674C245.029 157.552 242.284 158.43 239.538 159.418C239.538 161.724 239.538 164.139 239.538 166.555Z" fill="black"/>
<path d="M197.693 322.46C200.439 321.582 203.184 320.703 205.93 319.825C205.93 317.41 205.93 315.104 205.93 312.688C203.184 313.567 200.439 314.445 197.693 315.323C197.693 317.629 197.693 320.045 197.693 322.46Z" fill="black"/>
<path d="M358.922 144.926C358.922 147.89 358.922 150.855 358.922 153.929C362.327 153.929 365.842 153.929 369.246 154.148C369.246 151.184 369.246 148.22 369.246 145.145C365.732 144.926 362.327 144.926 358.922 144.926Z" fill="black"/>
<path d="M322.02 314.665C319.274 315.104 316.528 315.653 313.782 316.202C313.782 318.617 313.782 320.923 313.782 323.338C316.528 322.789 319.274 322.35 322.02 321.801C322.02 319.386 322.02 316.97 322.02 314.665Z" fill="black"/>
<path d="M340.91 407.549C340.91 405.134 340.91 402.828 340.91 400.413C338.274 400.632 335.639 400.961 333.003 401.291C332.893 401.291 332.783 401.291 332.673 401.291C327.95 401.84 323.338 402.608 318.615 403.377C318.615 410.623 318.615 417.76 318.615 425.006C320.153 424.786 321.58 424.457 323.118 424.237C323.118 428.19 323.118 432.142 323.118 436.095C321.58 436.315 320.153 436.534 318.615 436.863C318.615 438.95 318.615 440.926 318.615 443.012C323.338 442.134 328.17 441.475 332.893 440.816C332.893 429.947 332.893 419.187 332.893 408.318C335.639 408.098 338.274 407.769 340.91 407.549Z" fill="black"/>
<path d="M307.742 182.145C307.742 173.691 307.742 165.347 307.742 156.893C297.528 159.089 287.204 161.724 276.99 164.688C276.99 167.872 276.99 171.166 276.99 174.35C275.452 174.789 273.914 175.228 272.377 175.668C272.377 180.828 272.377 185.988 272.377 191.148C270.4 191.697 268.313 192.356 266.336 193.015C266.336 197.736 266.336 202.567 266.336 207.288C268.533 206.629 270.62 205.97 272.816 205.312C272.816 208.935 272.816 212.558 272.816 216.181C274.903 215.522 276.99 214.973 279.186 214.315C279.186 218.926 279.186 223.427 279.186 228.039C277.099 228.588 275.013 229.246 272.816 229.905C272.816 235.285 272.816 240.555 272.816 245.935C276.99 244.727 281.273 243.519 285.446 242.312C285.446 237.371 285.446 232.54 285.446 227.599C288.412 226.831 291.377 226.062 294.343 225.294C294.343 226.721 294.343 228.148 294.343 229.576C294.343 230.234 294.013 230.674 293.354 230.893C291.377 231.332 289.84 231.771 288.741 231.991C290.608 234.846 291.707 237.7 292.146 240.555C297.528 239.128 301.262 237.7 303.458 236.163C304.996 235.065 305.985 233.858 306.534 232.43C307.083 231.003 307.303 229.136 307.303 226.831C307.303 216.73 307.303 206.519 307.303 196.418C309.609 195.979 311.806 195.43 314.112 194.991C314.112 196.199 314.112 197.297 314.112 198.504C330.696 195.32 347.39 193.454 363.974 193.674C363.974 190.929 363.974 188.184 363.974 185.439C347.5 185.11 330.916 186.976 314.441 190.16C314.441 186.976 314.441 183.792 314.441 180.608C312.135 181.267 309.938 181.706 307.742 182.145ZM283.25 171.825C287.643 170.617 292.146 169.409 296.539 168.312C296.539 169.08 296.539 169.849 296.539 170.617C292.915 171.496 289.291 172.484 285.776 173.362C285.776 178.083 285.776 182.804 285.776 187.415C284.897 187.635 284.129 187.855 283.25 188.074C283.25 182.804 283.25 177.315 283.25 171.825ZM296.539 177.424C296.539 179.84 296.539 182.255 296.539 184.671C295.551 184.89 294.562 185.11 293.574 185.439C293.574 183.024 293.574 180.608 293.574 178.193C294.452 177.973 295.441 177.754 296.539 177.424ZM294.343 217.279C291.377 218.047 288.412 218.816 285.446 219.585C285.446 218.706 285.446 217.828 285.446 216.95C288.412 216.181 291.377 215.412 294.343 214.644C294.343 215.522 294.343 216.401 294.343 217.279ZM294.343 206.739C291.377 207.507 288.412 208.276 285.446 209.044C285.446 208.166 285.446 207.398 285.446 206.519C288.412 205.751 291.377 204.982 294.343 204.214C294.343 204.982 294.343 205.861 294.343 206.739ZM303.019 193.783C294.343 195.76 285.666 198.065 277.099 200.59C277.099 199.822 277.099 199.053 277.099 198.175C285.776 195.65 294.452 193.344 303.019 191.368C303.019 192.246 303.019 193.015 303.019 193.783Z" fill="black"/>
<path d="M360.57 382.187C355.518 382.187 350.356 382.407 345.304 382.736C347.72 381.858 350.136 380.979 352.552 380.101C351.893 378.674 350.356 376.588 348.049 373.953C353.102 373.623 358.044 373.513 363.096 373.623C363.096 371.757 363.096 369.89 363.096 368.024C359.472 368.024 355.847 368.024 352.223 368.134C352.223 366.926 352.223 365.718 352.223 364.51C346.731 364.73 341.35 365.169 335.858 365.828C336.847 363.961 337.616 362.424 338.165 361.217C333.332 360.668 328.5 360.338 323.777 360.119C321.361 366.157 317.846 371.647 313.234 376.807C313.234 374.392 313.234 371.867 313.234 369.451C307.083 370.659 301.042 371.976 294.892 373.513C294.892 374.721 294.892 375.819 294.892 377.027C292.146 377.686 289.401 378.454 286.655 379.113C286.655 375.929 286.655 372.745 286.655 369.671C284.348 369.78 282.152 369.89 279.845 370C275.892 379.332 270.62 387.347 263.81 394.045C268.094 394.594 271.938 395.472 275.123 396.57C273.915 396.899 272.816 397.229 271.608 397.558C271.608 401.181 271.608 404.804 271.608 408.427C275.233 407.329 278.857 406.341 282.481 405.243C282.481 406.89 282.481 408.427 282.481 410.074C278.857 411.062 275.233 412.16 271.608 413.258C271.608 422.591 271.608 432.033 271.608 441.365C267.874 443.012 265.568 444 264.469 444.329C265.238 447.733 266.007 451.246 266.776 454.65C281.163 448.282 293.135 443.451 302.8 439.828C303.898 441.585 304.777 443.231 305.326 444.659C309.499 442.024 313.783 439.389 317.956 436.864C316.309 437.193 314.771 437.413 313.124 437.742C313.124 434.887 313.124 432.142 313.124 429.288C310.707 426.323 307.852 423.579 304.447 420.834C307.522 420.175 310.598 419.516 313.673 418.858C313.673 413.917 313.673 408.976 313.673 404.036C313.124 404.145 312.684 404.255 312.135 404.365C312.135 401.73 312.135 398.985 312.135 396.35C312.684 396.24 313.124 396.131 313.673 396.021C313.673 392.947 313.673 389.872 313.673 386.688C307.852 387.786 301.921 389.104 296.1 390.531C298.516 388.994 300.823 387.567 303.239 386.14C302.69 384.822 301.592 383.065 299.944 381.089C303.569 380.211 307.303 379.442 310.927 378.674C309.499 379.991 308.511 380.979 307.852 381.528C311.696 382.297 315.54 383.724 319.494 385.591C319.164 385.591 318.835 385.7 318.615 385.7C318.615 388.775 318.615 391.849 318.615 395.033C323.667 394.154 328.829 393.386 333.881 392.727C333.881 393.386 333.881 394.154 333.881 394.813C337.945 394.374 341.899 393.935 345.963 393.715C345.963 400.303 345.963 407 345.963 413.588C350.795 413.258 355.628 413.039 360.46 413.039C360.46 404.036 360.46 395.142 360.46 386.14C363.316 386.14 366.171 386.249 369.027 386.359C369.027 384.932 369.027 383.504 369.027 381.967C366.281 382.297 363.426 382.187 360.57 382.187ZM277.209 396.021C280.175 392.398 282.811 388.994 285.007 385.591C287.533 388.555 289.181 390.861 290.06 392.507C285.776 393.605 281.493 394.813 277.209 396.021ZM285.776 414.027C290.389 412.819 295.002 411.611 299.615 410.513C299.615 411.392 299.615 412.16 299.615 413.039C295.002 414.137 290.389 415.344 285.776 416.552C285.776 415.674 285.776 414.795 285.776 414.027ZM292.366 428.19C293.354 428.959 294.672 430.166 296.32 431.703C292.805 433.021 289.291 434.338 285.776 435.766C285.776 432.472 285.776 429.068 285.776 425.775C291.597 424.237 297.418 422.7 303.239 421.383C299.615 423.579 295.99 425.884 292.366 428.19ZM299.615 399.424C299.615 400.193 299.615 400.852 299.615 401.62C295.002 402.718 290.389 403.926 285.776 405.134C285.776 404.365 285.776 403.706 285.776 402.938C290.389 401.73 295.002 400.522 299.615 399.424ZM321.251 385.7C324.107 382.956 326.852 379.662 329.598 375.819C330.367 375.709 331.136 375.599 331.905 375.49C334.76 378.234 336.847 380.76 338.275 383.285C332.563 383.944 326.852 384.712 321.251 385.7Z" fill="black"/>
<path d="M362.547 162.822C358.703 162.822 354.749 162.822 350.905 163.042C350.905 160.516 350.905 157.991 350.905 155.466C350.795 155.466 350.795 155.466 350.685 155.466C350.685 153.16 350.685 150.855 350.685 148.549C347.171 148.769 343.656 148.988 340.142 149.317C340.142 151.623 340.142 153.929 340.142 156.234C339.153 156.344 338.165 156.454 337.286 156.564C337.286 154.258 337.286 151.953 337.286 149.647C333.771 149.976 330.367 150.415 326.852 150.964C326.852 153.27 326.852 155.576 326.852 157.881C323.118 158.43 319.274 159.089 315.54 159.748C315.54 169.19 315.54 178.522 315.54 187.964C331.245 185 346.841 183.243 362.547 183.463C362.547 176.546 362.547 169.739 362.547 162.822ZM329.378 177.863C328.5 177.973 327.511 178.083 326.633 178.303C326.633 177.315 326.633 176.436 326.633 175.448C327.511 175.338 328.5 175.228 329.378 175.009C329.378 175.997 329.378 176.985 329.378 177.863ZM329.378 167.872C328.5 167.982 327.511 168.092 326.633 168.312C326.633 167.433 326.633 166.555 326.633 165.677C327.511 165.567 328.5 165.457 329.378 165.237C329.378 166.116 329.378 166.994 329.378 167.872ZM340.142 176.656C339.153 176.766 338.165 176.875 337.286 176.985C337.286 175.997 337.286 175.119 337.286 174.131C338.274 174.021 339.263 173.911 340.142 173.801C340.142 174.789 340.142 175.668 340.142 176.656ZM340.142 166.665C339.153 166.774 338.165 166.884 337.286 166.994C337.286 166.116 337.286 165.237 337.286 164.359C338.274 164.249 339.263 164.139 340.142 164.03C340.142 164.908 340.142 165.786 340.142 166.665ZM351.015 175.887C350.026 175.887 349.038 175.997 348.159 175.997C348.159 175.009 348.159 174.131 348.159 173.142C349.148 173.033 350.136 173.033 351.015 173.033C351.015 174.021 351.015 174.899 351.015 175.887ZM351.015 165.896C350.026 165.896 349.038 166.006 348.159 166.006C348.159 165.128 348.159 164.249 348.159 163.371C349.148 163.261 350.136 163.261 351.015 163.261C351.015 164.139 351.015 165.018 351.015 165.896Z" fill="black"/>
<path d="M346.072 418.089C346.072 418.967 345.413 419.516 344.095 419.626C339.702 419.955 336.188 420.285 333.662 420.504C335.968 424.347 337.286 427.97 337.835 431.593C346.292 430.715 352.003 429.837 355.078 428.519C357.165 427.531 358.703 426.323 359.362 424.677C360.13 423.139 360.46 420.834 360.46 417.869C360.46 417.76 360.46 417.65 360.46 417.54C355.737 417.43 350.905 417.65 346.072 418.089C346.072 417.979 346.072 418.089 346.072 418.089Z" fill="black"/>
<path d="M102.8 158.43C113.564 158.101 124.437 156.893 135.2 155.136C135.2 155.136 142.009 154.039 142.009 153.929C142.009 156.564 142.009 159.309 142.009 161.944C136.518 163.042 131.026 163.92 125.535 164.579C123.448 166.335 121.142 168.092 118.835 169.739C112.355 174.35 105.766 177.863 98.8464 180.389C103.02 183.353 106.754 186.866 110.159 190.929C112.355 189.831 114.552 188.623 116.749 187.306C116.749 184.89 116.749 182.365 116.749 179.95C120.812 179.51 124.876 179.071 128.94 178.522C133.443 174.68 137.836 170.398 142.009 165.677C142.009 173.801 142.009 181.816 142.009 189.941C147.501 188.953 152.882 187.745 158.374 186.427C158.374 178.193 158.374 169.958 158.374 161.724C168.039 168.861 178.583 173.142 189.895 174.68C191.213 172.484 192.97 170.068 195.167 167.104C197.363 164.249 199.34 161.834 201.098 160.077C200.658 160.077 200.219 160.077 199.78 159.967C195.936 161.175 192.201 162.383 188.357 163.481C188.357 161.724 188.357 160.077 188.357 158.32C186.051 157.772 183.745 157.223 181.438 156.454C175.068 154.368 169.577 151.733 165.074 148.439C176.166 145.585 187.149 142.291 198.242 138.777C198.242 134.605 198.242 130.433 198.242 126.261C184.953 130.433 171.663 134.276 158.374 137.46C155.848 138.009 153.322 138.668 150.906 139.217C150.906 138.009 150.906 136.801 150.906 135.703C153.432 135.154 155.958 134.605 158.374 133.947C158.374 132.19 158.374 130.433 158.374 128.567C169.027 126.042 179.571 122.967 190.224 119.783C190.224 116.27 190.224 112.866 190.224 109.353C193.519 108.365 196.814 107.267 200.219 106.279C200.219 104.742 200.219 103.205 200.219 101.668C194.068 103.644 187.808 105.51 181.658 107.377C181.658 108.255 181.658 109.024 181.658 109.902C173.97 112.208 166.172 114.294 158.484 116.16C158.484 111.988 158.484 107.816 158.484 103.644C152.992 104.961 147.611 106.169 142.119 107.157C142.119 113.415 142.009 119.564 142.009 125.822C137.616 126.7 133.223 127.359 128.83 128.018C128.83 125.932 128.83 123.846 128.83 121.869C122.899 122.748 116.968 123.407 110.928 123.736C110.928 127.908 110.928 132.08 110.928 136.252C121.252 135.484 131.685 134.056 142.009 132.08C142.009 135.045 142.009 138.119 142.009 141.083C132.235 142.95 122.46 144.377 112.575 145.145C112.575 144.596 112.575 144.047 112.575 143.499C106.425 143.938 100.164 144.157 94.0139 144.157C94.0139 145.694 94.0139 147.231 94.0139 148.769C96.8695 148.769 99.8349 148.769 102.69 148.659C102.8 152.062 102.8 155.246 102.8 158.43Z" fill="black"/>
<path d="M128.281 367.804C128.281 370.11 128.281 372.415 128.281 374.721C151.565 371.427 174.848 365.059 198.132 357.594C198.132 355.288 198.132 352.982 198.132 350.677C174.848 358.033 151.565 364.51 128.281 367.804Z" fill="black"/>
<path d="M275.562 310.383C277.539 320.484 278.637 328.828 278.857 335.525C282.701 333.769 286.655 332.122 290.499 330.475C289.95 322.899 288.632 314.555 286.435 305.662C282.811 307.199 279.186 308.736 275.562 310.383Z" fill="black"/>
<path d="M114.882 384.932C122.46 384.273 130.038 383.285 137.616 381.858C136.408 384.053 135.42 385.591 134.871 386.469C130.258 387.347 125.645 388.116 120.922 388.775C121.471 391.41 121.911 394.045 122.46 396.68C129.159 395.582 135.749 394.264 142.229 392.727C142.229 391.3 142.229 389.763 142.229 388.335C144.975 387.786 147.83 387.237 150.576 386.579C150.576 387.896 150.576 389.214 150.576 390.641C164.415 387.018 177.704 382.516 190.554 377.905C192.421 378.344 194.288 379.113 196.155 379.991C199.67 377.137 203.184 374.282 206.699 371.427C203.404 370 198.901 368.792 193.08 367.914C198.901 366.157 204.612 364.291 210.433 362.424C210.433 360.119 210.433 357.813 210.433 355.507C178.583 365.938 146.732 375.38 114.882 378.125C114.882 380.32 114.882 382.626 114.882 384.932ZM152.443 379.003C160.68 377.137 169.027 375.05 177.265 372.635C176.386 373.184 175.617 373.843 174.739 374.392C176.057 374.611 177.375 374.721 178.692 374.941C176.716 375.49 172.213 377.027 164.964 379.113C157.715 381.199 152.333 382.626 148.709 383.504C149.697 382.297 151.015 380.76 152.443 379.003Z" fill="black"/>
<path d="M260.955 310.273C260.955 325.864 260.955 341.564 260.955 357.154C265.677 355.617 270.51 354.19 275.232 352.763C275.232 335.635 275.232 318.507 275.232 301.27C279.296 300.062 283.36 298.964 287.424 297.866C287.424 294.024 287.424 290.071 287.424 286.229C283.36 287.326 279.296 288.424 275.232 289.632C275.232 285.789 275.232 281.947 275.232 278.214C277.868 282.386 279.626 285.68 280.394 287.985C283.909 285.789 287.314 283.593 290.828 281.398C289.73 278.433 287.643 275.03 284.678 271.297C281.603 273.163 278.417 275.139 275.342 277.116C275.342 275.688 275.342 274.371 275.342 272.944C270.62 274.371 265.787 275.798 261.064 277.335C261.064 282.935 261.064 288.534 261.064 294.024C256.781 295.341 252.388 296.769 248.105 298.196C248.105 299.513 248.105 300.831 248.105 302.148C244.37 302.368 240.636 302.478 236.902 302.697C234.596 307.858 231.63 313.018 228.006 318.398C224.381 323.777 220.537 328.499 216.583 332.671C217.792 333.659 219.329 335.086 220.977 337.062C222.734 339.039 223.942 340.576 224.601 341.893C226.358 339.917 228.006 338.05 229.324 336.294C229.324 344.418 229.324 352.653 229.324 360.777C231.85 359.899 234.486 359.021 237.012 358.252C237.012 360.997 237.012 363.742 237.012 366.377C239.099 365.718 241.185 364.95 243.382 364.291C243.382 358.472 243.382 352.543 243.382 346.724C247.006 347.273 250.191 348.151 252.937 349.359C256.671 341.015 259.087 329.487 260.186 314.665C256.122 315.433 252.168 316.312 248.105 317.08C247.446 330.145 245.798 339.697 243.382 345.846C243.382 338.709 243.382 331.573 243.382 324.436C238.33 326.083 233.278 327.73 228.335 329.487C228.335 328.828 228.335 328.279 228.335 327.62C233.387 325.973 238.44 324.217 243.382 322.57C243.382 320.264 243.382 317.958 243.382 315.653C245.578 311.81 247.116 308.846 248.105 306.869C248.105 307.858 248.105 308.846 248.105 309.834C249.642 309.285 251.18 308.846 252.827 308.297C257.989 306.65 263.261 305.003 268.423 303.356C268.423 304.893 268.423 306.43 268.423 307.967C265.897 308.736 263.371 309.504 260.955 310.273Z" fill="black"/>
<path d="M219.659 248.46C219.659 253.401 219.659 258.341 219.659 263.282C224.601 261.635 229.653 259.988 234.596 258.341C234.596 253.291 234.596 248.24 234.596 243.19C239.977 247.142 245.139 249.887 250.191 251.205C253.267 246.374 256.781 241.982 260.845 237.92C253.596 237.042 247.116 235.065 241.515 231.772C247.226 229.905 252.937 228.039 258.758 226.172C258.758 224.415 258.758 222.549 258.758 220.792C252.278 222.878 245.908 224.964 239.428 227.05C239.428 225.294 239.428 223.647 239.428 221.89C237.89 222.439 236.243 222.988 234.705 223.427C234.705 222.11 234.705 220.792 234.705 219.475C239.648 217.828 244.59 216.181 249.532 214.534C249.532 212.448 249.532 210.252 249.532 208.166C252.608 207.178 255.683 206.19 258.758 205.202C258.758 204.543 258.758 203.774 258.758 203.116C255.683 204.104 252.608 205.092 249.532 206.08C249.532 205.531 249.532 205.092 249.532 204.543C244.7 206.08 239.867 207.727 235.035 209.374C229.873 211.131 224.821 212.777 219.659 214.534C219.659 213.546 219.659 212.558 219.659 211.68C224.601 210.033 229.543 208.386 234.376 206.739C234.376 204.982 234.376 203.226 234.376 201.469C239.428 199.822 244.48 198.065 249.532 196.418C249.532 194.223 249.532 192.027 249.532 189.831C252.388 188.953 255.243 187.964 258.099 187.086C258.099 183.573 258.099 180.059 258.099 176.546C255.243 177.424 252.388 178.412 249.532 179.291C249.532 176.436 249.532 173.472 249.532 170.617C244.7 172.154 239.867 173.801 235.035 175.448C235.035 178.303 235.035 181.267 235.035 184.122C229.873 185.878 224.821 187.525 219.659 189.282C219.659 186.427 219.659 183.463 219.659 180.608C215.046 182.145 210.433 183.682 205.82 185.11C205.82 187.964 205.82 190.929 205.82 193.783C202.745 194.772 199.78 195.76 196.704 196.638C196.704 199.602 196.704 202.567 196.704 205.421C194.288 205.97 191.872 206.519 189.346 206.958C188.577 207.288 187.808 207.507 186.93 207.837C185.282 208.386 183.525 208.825 181.877 209.374C182.756 204.872 183.744 199.383 184.953 192.685C180.12 193.674 175.288 194.662 170.565 195.65C170.126 199.273 169.137 205.202 167.819 213.326C164.964 214.095 162.108 214.754 159.253 215.522C159.253 219.365 159.253 223.208 159.253 227.05C161.339 226.501 163.426 226.062 165.403 225.513C164.964 227.819 164.524 230.015 164.085 232.211C168.588 231.003 173.201 229.795 177.704 228.478C178.363 225.513 178.912 223.318 179.241 221.671C180.669 221.231 182.207 220.792 183.635 220.353C183.415 222.549 183.086 224.745 182.646 226.941C182.866 226.831 183.086 226.831 183.415 226.721C183.415 228.807 183.415 231.003 183.415 233.089C182.756 233.309 182.097 233.528 181.328 233.748C180.779 236.273 180.12 238.688 179.351 241.104C177.924 240.445 176.496 239.786 175.178 239.128C175.507 237.7 175.837 236.383 176.056 235.175C171.553 236.493 167.05 237.7 162.547 238.798C162.438 239.128 162.438 239.457 162.328 239.786C154.859 241.653 147.391 243.3 139.813 244.727C139.813 246.374 139.813 248.021 139.813 249.668C146.952 248.35 153.981 246.813 161.12 245.056C160.57 247.142 160.131 249.119 159.582 251.095C163.426 252.412 167.38 253.51 171.224 254.718C171.444 253.95 171.663 253.181 171.993 252.412C172.762 252.852 173.53 253.291 174.299 253.73C170.345 260.866 165.513 266.685 159.582 270.858C162.877 272.614 165.842 275.139 168.478 278.543C175.178 272.834 180.559 266.576 184.403 259.988C186.6 261.745 188.138 262.953 188.906 263.831C191.872 259.769 194.837 255.596 197.912 251.424C196.375 249.997 194.068 248.35 190.883 246.593C194.837 235.834 197.254 222.439 198.022 206.519C200.548 205.751 203.184 204.872 205.71 203.994C205.71 212.228 205.71 220.463 205.71 228.697C210.323 227.16 214.936 225.623 219.659 224.086C219.659 225.404 219.659 226.721 219.659 228.039C212.08 230.564 204.392 233.089 196.814 235.504C196.814 239.018 196.814 242.531 196.814 246.045C202.086 244.398 207.358 242.641 212.63 240.994C206.919 248.46 199.889 255.157 191.433 260.866C193.959 261.855 196.375 263.282 198.571 264.929C192.201 266.905 185.831 268.881 179.461 270.748C179.461 272.834 179.461 274.81 179.461 276.896C187.039 274.7 194.618 272.395 202.196 269.979C202.196 268.991 202.196 268.003 202.196 267.015C202.196 265.917 202.196 264.819 202.196 263.721C202.196 262.294 202.196 260.757 202.196 259.329C206.04 258.122 209.994 256.804 213.838 255.487C215.705 253.73 217.682 251.205 219.659 248.46ZM219.549 199.932C224.711 198.175 229.763 196.528 234.925 194.771C234.925 195.76 234.925 196.638 234.925 197.626C229.763 199.383 224.711 201.03 219.549 202.786C219.549 201.798 219.549 200.81 219.549 199.932Z" fill="black"/>
<path d="M204.173 336.843C204.063 337.611 203.953 338.27 203.624 338.49C203.404 338.709 203.184 338.929 202.745 339.039C202.525 339.148 202.306 339.148 201.976 339.258C201.647 339.368 201.427 339.258 201.317 339.039C201.207 338.929 201.207 338.05 201.207 336.513C201.207 332.78 201.207 329.047 201.207 325.315C197.254 326.522 193.3 327.84 189.346 329.048H189.236C189.236 331.683 189.236 334.318 189.236 337.062C187.479 336.733 185.831 336.404 184.074 336.074C184.733 333.659 185.063 331.573 185.282 329.706C186.6 329.377 187.918 328.938 189.236 328.608H189.346C189.346 325.644 189.346 322.789 189.346 319.825C188.687 320.045 188.028 320.264 187.369 320.484C187.369 317.958 187.369 315.323 187.369 312.798C192.201 311.371 196.924 309.834 201.757 308.297C201.757 306.101 201.757 303.905 201.757 301.709C203.184 301.27 204.502 300.831 205.93 300.392C205.93 299.733 205.93 298.964 205.93 298.306C201.647 299.733 197.254 301.05 192.97 302.478C192.97 301.819 192.97 301.05 192.97 300.392C199.56 298.415 206.04 296.22 212.63 294.134C212.63 292.487 212.63 290.84 212.63 289.193C206.04 291.389 199.56 293.475 192.97 295.451C192.97 294.463 192.97 293.585 192.97 292.596C189.236 293.804 185.392 294.902 181.658 296C181.658 297.867 181.658 299.733 181.658 301.599C178.583 302.478 175.507 303.356 172.322 304.234C172.322 305.662 172.322 307.089 172.322 308.516C168.698 309.504 165.074 310.493 161.449 311.371C161.449 314.226 161.449 317.19 161.449 320.045C165.074 319.166 168.698 318.178 172.322 317.19C172.322 319.715 172.322 322.35 172.322 324.875C169.686 325.644 167.051 326.303 164.415 326.961C164.415 329.926 164.415 332.78 164.415 335.745C165.403 335.525 166.501 335.196 167.49 334.976C165.842 337.172 164.195 339.368 162.548 341.564C162.767 341.015 162.987 340.246 163.207 339.478C160.131 339.807 157.935 339.697 156.287 339.258C156.177 340.576 155.518 341.344 154.42 341.564C153.432 341.783 152.443 342.003 151.565 342.223C151.015 342.332 150.686 342.332 150.576 342.113C150.466 341.893 150.356 341.454 150.356 340.795C150.356 340.685 150.356 340.576 150.356 340.576C152.883 340.027 155.409 339.478 157.825 338.819C157.825 336.733 157.825 334.757 157.825 332.671C153.761 333.659 149.807 334.537 145.744 335.306C145.744 334.757 145.744 334.098 145.744 333.549C149.917 332.671 153.981 331.792 158.154 330.804C158.154 328.828 158.154 326.852 158.154 324.985C156.287 325.424 154.42 325.864 152.553 326.303C152.553 320.594 152.553 314.994 152.553 309.285C147.611 310.383 142.668 311.371 137.726 312.249C137.726 313.677 137.726 315.104 137.726 316.531C130.258 317.849 122.789 318.837 115.321 319.496C115.321 322.35 115.321 325.315 115.321 328.169C122.789 327.51 130.258 326.522 137.726 325.205C137.726 325.973 137.726 326.742 137.726 327.51C136.188 327.73 134.651 328.059 133.113 328.279C133.113 328.828 133.113 329.487 133.113 330.036C133.113 332.012 133.113 333.988 133.113 335.855C133.113 336.404 133.113 337.062 133.113 337.611C127.512 338.49 121.911 339.258 116.309 339.697C116.309 339.697 116.309 339.697 116.309 339.807C112.136 340.246 107.962 340.466 103.789 340.576C103.789 341.234 103.789 342.003 103.789 342.662C107.962 342.552 112.136 342.223 116.309 341.893C116.309 343.211 116.309 344.528 116.309 345.846C119.385 345.516 122.46 345.187 125.425 344.858C123.997 346.614 120.044 348.261 113.564 349.359C114.332 349.908 115.321 350.567 116.2 351.665C117.188 352.653 117.847 353.641 118.176 354.41C118.396 354.3 118.835 354.19 119.385 354.08C119.934 353.97 120.263 353.861 120.483 353.861C120.483 355.727 120.483 357.703 120.483 359.57C124.656 359.131 128.94 358.472 133.113 357.813C133.113 358.472 133.113 359.131 133.113 359.899C123.888 361.546 118.067 362.205 115.65 362.534C115.76 364.84 115.98 367.145 116.09 369.341C131.685 367.255 147.171 363.522 162.548 358.911C162.548 358.252 162.548 357.594 162.548 356.935C164.854 358.033 166.611 358.911 167.71 359.789C173.091 355.507 177.155 350.896 180.01 346.175C181.878 346.504 183.745 347.053 185.502 347.822C186.82 345.956 188.138 344.199 189.456 342.332C189.566 345.956 190.334 348.261 191.872 349.03C193.519 349.908 195.826 349.908 198.681 349.03C200.109 348.591 201.647 348.042 203.075 347.602C205.381 346.834 207.028 346.065 208.127 345.077C209.664 343.869 210.763 342.442 211.422 340.795C212.081 339.368 212.52 336.623 212.74 332.451C209.335 332.671 206.699 332.341 204.722 331.463C204.612 333.878 204.393 335.745 204.173 336.843ZM133.333 347.493C133.333 348.92 133.333 350.237 133.333 351.665C129.379 352.323 125.535 352.872 121.581 353.312C129.159 351.116 133.772 347.493 135.2 343.211C137.397 342.881 139.593 342.442 141.79 342.003C141.79 342.113 141.79 342.223 141.79 342.223C141.79 343.869 142.009 345.187 142.339 345.846C139.374 346.504 136.298 347.053 133.333 347.493ZM162.438 352.543C156.946 354.08 151.565 355.507 146.073 356.825C146.073 356.276 146.073 355.727 146.073 355.178C150.356 354.3 154.64 353.312 158.813 352.323C158.813 350.347 158.813 348.371 158.813 346.504C154.53 347.493 150.247 348.481 146.073 349.359C146.073 348.92 146.073 348.371 146.073 347.932C147.062 347.932 148.599 347.712 150.356 347.383C152.224 346.944 154.091 346.614 155.958 346.175C158.813 345.516 160.79 344.418 161.889 342.991C163.207 343.101 165.842 343.43 169.906 343.979C168.149 346.614 165.733 349.579 162.438 352.543ZM173.97 333.878C173.86 334.318 173.75 334.647 173.75 334.867C172.213 334.647 170.455 334.537 168.368 334.537C170.345 333.988 172.322 333.439 174.189 332.89C174.189 333.11 174.08 333.439 173.97 333.878Z" fill="black"/>
<path d="M310.927 312.798C310.927 309.614 310.927 306.43 310.927 303.246C313.453 302.697 315.869 302.258 318.395 301.819C318.395 298.086 318.395 294.353 318.395 290.62C308.621 292.377 298.736 294.683 288.961 297.208C288.961 300.941 288.961 304.674 288.961 308.407C291.487 307.748 293.903 307.089 296.43 306.54C296.43 316.092 296.43 325.534 296.43 335.086C296.43 335.964 295.88 336.513 294.782 336.733C291.158 337.611 288.083 338.38 285.666 338.929C287.973 342.772 289.291 346.504 289.73 350.128C297.638 348.042 303.019 346.175 305.985 344.089C307.962 342.662 309.28 341.125 310.048 339.258C310.707 337.502 311.037 335.086 311.037 332.012C311.037 327.84 311.037 323.777 311.037 319.605C307.852 320.264 304.557 320.923 301.372 321.691C301.372 319.386 301.372 317.19 301.372 314.884C304.447 314.226 307.742 313.457 310.927 312.798Z" fill="black"/>
<path d="M229.324 140.095C221.855 147.341 213.728 153.819 205.052 159.309C208.896 160.955 212.52 163.481 215.925 166.774C227.347 158.76 237.781 148.769 247.226 137.131C247.226 142.84 247.226 148.549 247.226 154.258C249.313 153.599 251.509 152.831 253.596 152.172C253.596 153.819 253.596 155.356 253.596 157.003C256.891 155.905 260.186 154.917 263.481 153.819C263.481 146.243 263.481 138.668 263.481 131.092C273.036 136.911 283.58 140.315 295.002 141.852C296.43 139.656 298.187 137.131 300.383 134.276C302.58 131.421 304.557 129.226 306.424 127.469C299.505 126.92 293.025 125.932 286.874 124.285C282.481 125.493 278.088 126.7 273.695 128.018C273.695 126.151 273.695 124.285 273.695 122.418C275.013 121.979 276.441 121.65 277.759 121.211C273.475 119.454 269.851 117.478 266.666 115.172C269.851 115.611 272.706 116.27 275.123 117.148C277.649 114.294 279.626 111.769 280.944 109.573C286.435 111.769 290.499 113.635 293.025 115.062C296.539 111.329 300.054 107.487 303.678 103.863C301.701 102.875 296.21 100.57 287.424 97.4955C288.961 93.6528 290.169 90.359 290.828 87.724C286.655 88.1632 282.481 88.7122 278.308 89.2611C286.325 86.9555 294.343 84.8694 302.36 83.003C302.36 80.8071 302.36 78.6113 302.36 76.5252C304.996 75.8664 307.742 75.3175 310.378 74.7685C310.378 71.365 310.378 67.9614 310.378 64.6676C306.534 65.4362 302.58 66.3145 298.736 67.3027C298.736 70.3768 298.736 73.5608 298.736 76.635C293.025 77.9525 287.314 79.4896 281.603 81.1365C281.603 79.4896 281.603 77.7329 281.603 76.086C275.562 77.7329 269.631 79.5994 263.591 81.4659C263.591 78.0623 263.591 74.6587 263.591 71.2552C258.209 72.9021 252.717 74.6587 247.336 76.4154C247.336 79.819 247.336 83.2225 247.336 86.6261C238.549 89.4807 229.653 92.4451 220.867 95.4095C220.867 97.3857 220.867 99.4718 220.867 101.448C217.243 102.656 213.728 103.863 210.104 104.961C210.104 107.047 210.104 109.134 210.104 111.329C215.485 109.573 220.867 107.816 226.139 105.95C223.064 117.917 217.023 128.018 207.907 136.252C212.19 137.24 216.144 138.668 219.769 140.644C223.723 136.582 227.457 131.641 231.081 125.932C233.607 126.92 235.474 127.908 236.792 128.786C240.197 124.724 243.492 120.662 246.896 116.49C245.029 115.611 241.954 114.404 237.781 112.866C239.318 109.024 240.417 105.62 241.295 102.766C237.122 103.534 232.838 104.303 228.665 105.071C234.925 102.985 241.185 100.899 247.446 98.813C247.446 105.291 247.446 111.769 247.446 118.246C242.833 125.602 236.792 132.739 229.324 140.095ZM263.591 93.7626C267.654 92.4451 271.718 91.2374 275.891 90.0297C273.805 98.7033 269.741 106.279 263.81 112.757C263.7 112.647 263.7 112.647 263.591 112.537C263.591 106.389 263.591 100.131 263.591 93.7626Z" fill="black"/>
<path d="M316.748 271.407C313.673 271.955 310.598 272.614 307.522 273.273C307.522 271.626 307.522 269.979 307.522 268.332C309.939 267.783 312.465 267.344 314.881 266.795C314.881 266.137 314.881 265.368 314.881 264.709C308.621 265.917 302.251 267.344 295.99 268.881C295.99 269.43 295.99 269.869 295.99 270.418C294.453 270.748 293.025 271.187 291.487 271.516C291.487 275.249 291.487 278.872 291.487 282.605C299.944 280.409 308.291 278.543 316.748 277.006C316.748 275.139 316.748 273.273 316.748 271.407Z" fill="black"/>
<path d="M235.035 290.73C233.168 291.389 231.41 291.938 229.543 292.596C228.775 293.585 228.006 294.573 227.237 295.671C224.052 299.843 220.757 303.466 217.462 306.54C220.318 308.297 222.844 310.602 225.26 313.457C229.434 309.504 233.497 304.783 237.671 299.513C241.844 294.243 245.469 289.083 248.434 284.142C243.931 284.252 239.538 284.362 235.035 284.472C235.035 286.558 235.035 288.644 235.035 290.73Z" fill="black"/>
<path d="M343.986 222.439C347.171 222.22 350.465 222 353.65 221.89C353.65 219.036 353.65 216.071 353.65 213.217C356.177 213.107 358.703 213.107 361.339 213.107C361.339 207.288 361.339 201.579 361.339 195.76C346.402 195.65 331.575 197.297 316.638 200.042C316.638 205.861 316.638 211.68 316.638 217.389C319.933 216.84 323.118 216.291 326.413 215.742C324.216 216.73 321.91 217.828 319.713 218.816C321.251 220.573 322.459 222.439 323.447 224.525C319.384 225.184 315.43 225.953 311.366 226.721C311.366 229.576 311.366 232.54 311.366 235.395C322.239 233.199 333.112 231.552 343.986 230.674C343.986 228.039 343.986 225.294 343.986 222.439ZM328.829 205.202C335.419 204.323 342.009 203.555 348.598 203.226C348.598 204.323 348.598 205.312 348.598 206.409C342.009 206.739 335.419 207.507 328.829 208.386C328.829 207.288 328.829 206.3 328.829 205.202ZM335.419 223.098C334.65 220.573 333.112 217.938 330.806 215.303C334.98 214.754 339.263 214.315 343.436 213.875C343.436 216.62 343.436 219.475 343.436 222.22C342.887 222.22 342.228 222.329 341.679 222.329C341.679 222.329 335.419 222.988 335.419 223.098Z" fill="black"/>
<path d="M365.073 221.561C361.339 221.451 357.714 221.451 353.98 221.561C353.98 224.525 353.98 227.38 353.98 230.344C357.714 230.234 361.339 230.234 365.073 230.344C365.073 227.38 365.073 224.415 365.073 221.561Z" fill="black"/>
<path d="M129.928 50.9436C129.928 49.7359 129.928 48.5282 129.928 47.3205C132.674 46.8813 135.31 46.4421 138.056 46.003C138.056 51.6024 138.056 57.2018 138.056 62.6914C135.31 63.1306 132.674 63.5697 129.928 64.0089C127.512 58.2997 123.558 55.8843 118.067 56.4332C115.321 56.7626 112.905 57.6409 110.708 59.178C108.621 60.7151 106.864 62.8012 105.766 65.3264C104.558 67.8516 104.009 70.5964 104.009 73.6706C104.009 76.5252 104.558 79.0504 105.656 81.3561C106.754 83.6617 108.402 85.4184 110.379 86.7359C112.356 88.0534 114.772 88.4926 117.298 88.273C120.483 87.9436 123.338 86.5163 125.755 83.9911C128.171 81.4659 129.709 78.2819 130.587 74.4392C133.662 75.4273 136.847 76.4154 139.923 77.2938C136.408 88.9318 128.5 95.9585 116.419 97.1662C111.147 97.6053 106.644 96.9466 102.691 94.9703C98.7367 93.1039 95.7713 90.2493 93.6846 86.5163C91.5978 82.7834 90.4995 78.5015 90.4995 73.5608C90.4995 68.9496 91.5978 64.7774 93.7944 61.0445C95.991 57.3116 98.9564 54.457 102.8 52.2611C106.644 50.0653 110.928 48.7478 115.65 48.3086C121.362 47.7596 126.194 48.5282 129.928 50.9436Z" fill="black"/>
<path d="M146.073 80.1484C146.073 77.0742 146.073 74 146.073 70.9258C152.443 69.6083 158.813 68.181 165.184 66.5341C165.184 69.6083 165.184 72.6825 165.184 75.7567C158.813 77.2938 152.443 78.8309 146.073 80.1484Z" fill="black"/>
<path d="M189.785 41.1721C189.785 51.6024 189.785 62.1424 189.785 72.5727C194.508 71.1454 199.121 69.7181 203.844 68.181C203.844 63.2403 203.844 58.4095 203.844 53.4688C206.919 52.4807 210.104 51.4926 213.179 50.3946C213.179 57.9703 213.179 65.546 213.179 73.1216C199.011 77.8427 184.843 82.3442 170.675 86.0771C170.675 83.3323 170.675 80.6973 170.675 77.9525C172.981 77.2937 175.178 76.7448 177.484 76.086C177.484 65.6558 177.484 55.1157 177.484 44.6854C175.178 45.3442 172.981 46.0029 170.675 46.5519C170.675 43.8071 170.675 41.1721 170.675 38.4273C179.352 36.1216 188.138 33.4866 196.814 30.7418C196.814 33.4866 196.814 36.1216 196.814 38.8665C194.398 39.7448 192.092 40.4035 189.785 41.1721Z" fill="black"/>
<path d="M248.873 21.8487C252.168 31.181 255.463 40.6231 258.758 50.0653C260.625 49.5163 262.492 48.8576 264.469 48.3086C264.469 51.0534 264.469 53.6884 264.469 56.4332C256.671 58.8487 248.873 61.3739 241.076 64.0089C241.076 61.2641 241.076 58.6291 241.076 55.8843C243.052 55.2255 245.139 54.5668 247.116 53.908C246.347 51.4926 245.579 48.9674 244.81 46.5519C240.746 47.8694 236.573 49.2967 232.509 50.6142C231.63 53.5786 230.861 56.543 229.983 59.5074C232.07 58.8487 234.156 58.0801 236.353 57.4214C236.353 60.1662 236.353 62.8012 236.353 65.546C229.324 67.8516 222.295 70.2671 215.375 72.5727C215.375 69.8279 215.375 67.1929 215.375 64.4481C217.352 63.7893 219.329 63.1306 221.196 62.4718C224.272 50.9436 227.347 39.5252 230.422 27.997C228.335 28.6558 226.139 29.4243 224.052 30.0831C224.052 27.3383 224.052 24.7033 224.052 21.9585C234.376 18.4451 244.81 15.0415 255.134 11.638C255.134 14.3828 255.134 17.0178 255.134 19.7626C253.157 20.4214 250.96 21.1899 248.873 21.8487ZM238.989 27.0089C237.561 32.2789 236.133 37.549 234.705 42.819C237.451 41.9407 240.197 40.9525 242.943 40.0742C241.625 35.6825 240.307 31.4006 238.989 27.0089Z" fill="black"/>
<path d="M309.499 9.33234C309.499 13.9436 307.303 17.6765 302.8 20.6409C305.655 21.0801 307.852 22.0682 309.28 23.7151C310.707 25.2522 311.366 27.4481 311.366 30.1929C311.366 39.5252 304.447 45.3442 290.499 48.9674C283.14 50.8338 275.782 53.0297 268.423 55.2255C268.423 52.4807 268.423 49.8457 268.423 47.1009C270.4 46.5519 272.377 45.8932 274.244 45.3442C274.244 34.9139 274.244 24.3739 274.244 13.9436C272.267 14.4926 270.29 15.1513 268.423 15.7003C268.423 12.9555 268.423 10.3205 268.423 7.57566C275.782 5.37981 283.14 3.18397 290.499 1.3175C296.869 -0.329385 301.701 -0.439177 304.777 0.988122C307.852 2.30563 309.499 5.16023 309.499 9.33234ZM297.089 12.7359C297.089 10.8694 296.43 9.77151 295.112 9.33234C293.794 8.89317 291.927 9.00296 289.51 9.66171C288.522 9.8813 287.533 10.2107 286.655 10.4303C286.655 14.0534 286.655 17.5668 286.655 21.1899C287.973 20.8605 289.181 20.5312 290.499 20.2018C292.695 19.6528 294.453 18.7745 295.551 17.6766C296.539 16.4688 297.089 14.822 297.089 12.7359ZM298.626 32.6083C298.626 30.3027 297.967 28.7656 296.649 28.1068C295.331 27.4481 293.025 27.4481 289.73 28.3264C288.742 28.546 287.643 28.8754 286.655 29.2047C286.655 33.3769 286.655 37.6587 286.655 41.8309C288.302 41.3917 289.84 40.9525 291.487 40.5133C293.684 39.9644 295.441 38.9763 296.759 37.7685C297.967 36.451 298.626 34.6944 298.626 32.6083Z" fill="black"/>
<path d="M356.287 85.1988C340.361 85.5282 324.546 87.724 308.621 91.0178C308.621 88.9317 308.621 86.9555 308.621 84.8694C324.546 81.5757 340.361 79.3798 356.287 79.0504C356.287 81.0267 356.287 83.1127 356.287 85.1988Z" fill="black"/>
<path d="M339.043 116.819C349.477 115.831 360.021 115.392 370.454 115.941C370.454 113.306 370.454 110.78 370.454 108.145C360.021 107.596 349.477 107.926 339.043 109.024C339.043 111.549 339.043 114.184 339.043 116.819Z" fill="black"/>
<path d="M396.594 83.6617C380.778 80.3679 364.963 79.4896 349.147 80.3679C349.147 78.9406 349.147 77.5133 349.147 76.086C364.963 75.2077 380.778 76.086 396.594 79.3798C396.594 80.8071 396.594 82.2344 396.594 83.6617Z" fill="black"/>
<path d="M138.495 219.145C125.864 221.451 113.234 222.878 100.604 223.098C100.604 221.561 100.604 220.024 100.604 218.487C113.234 218.267 125.864 216.84 138.495 214.534C138.495 216.071 138.495 217.608 138.495 219.145Z" fill="black"/>
<path d="M119.494 288.534C108.951 289.632 98.4072 290.071 87.9734 289.632C87.9734 287.875 87.9734 286.228 87.9734 284.472C98.517 284.911 109.061 284.472 119.494 283.374C119.494 285.131 119.494 286.777 119.494 288.534Z" fill="black"/>
<path d="M365.952 270.748C361.668 270.638 357.385 270.638 352.992 270.748C352.992 266.137 352.992 261.635 352.992 257.024C357.275 256.914 361.558 256.804 365.952 257.024C365.952 261.635 365.952 266.246 365.952 270.748Z" fill="black"/>
<path d="M362.547 329.926C351.015 329.816 339.483 330.694 327.95 332.341C327.95 331.024 327.95 329.596 327.95 328.279C339.483 326.632 351.015 325.754 362.547 325.863C362.547 327.291 362.547 328.608 362.547 329.926Z" fill="black"/>
<path d="M93.355 421.053C81.823 420.834 70.2909 419.626 58.7588 417.101C58.7588 415.783 58.7588 414.356 58.7588 413.039C70.2909 415.564 81.823 416.772 93.355 416.991C93.355 418.418 93.355 419.736 93.355 421.053Z" fill="black"/>
<path d="M43.6021 536.994C32.07 533.261 20.5379 528.101 9.00586 521.294C9.00586 519.976 9.00586 518.549 9.00586 517.231C20.5379 524.038 32.07 529.199 43.6021 532.932C43.6021 534.249 43.6021 535.567 43.6021 536.994Z" fill="black"/>
<path d="M457 292.157C437.011 278.872 417.132 270.748 397.143 266.466C397.143 264.709 397.143 262.953 397.143 261.196C417.132 265.478 437.011 273.493 457 286.887C457 288.644 457 290.401 457 292.157Z" fill="black"/>
<path d="M392.42 469.362C372.431 465.739 352.552 465.849 332.563 468.374C332.563 466.617 332.563 464.86 332.563 463.104C352.552 460.578 372.431 460.469 392.42 464.092C392.42 465.849 392.42 467.605 392.42 469.362Z" fill="black"/>
<path d="M258.648 461.896C247.006 465.629 235.364 469.472 223.722 473.424C223.722 471.997 223.722 470.679 223.722 469.252C235.364 465.409 247.006 461.457 258.648 457.724C258.648 459.151 258.648 460.578 258.648 461.896Z" fill="black"/>
<path d="M53.0476 197.846C35.3651 193.344 17.6825 185.549 0 173.801C0 172.154 0 170.507 0 168.97C17.6825 180.828 35.3651 188.513 53.0476 193.015C53.0476 194.662 53.0476 196.199 53.0476 197.846Z" fill="black"/>
<path d="M174.299 263.831C164.524 266.576 154.64 268.991 144.865 270.967C144.865 269.65 144.865 268.332 144.865 267.015C154.64 265.039 164.524 262.623 174.299 259.878C174.299 261.196 174.299 262.513 174.299 263.831Z" fill="black"/>
<path d="M372.871 353.531C376.495 353.751 380.229 354.08 383.854 354.629C383.854 352.323 383.854 350.018 383.854 347.712C380.229 347.273 376.495 346.834 372.871 346.614C372.871 348.81 372.871 351.226 372.871 353.531Z" fill="black"/>
<path d="M306.644 440.047C310.268 439.279 314.002 438.51 317.626 437.852C317.626 435.546 317.626 433.24 317.626 430.935C314.002 431.593 310.268 432.362 306.644 433.131C306.644 435.436 306.644 437.742 306.644 440.047Z" fill="black"/>
<path d="M410.432 413.697C406.808 412.599 403.074 411.611 399.449 410.843C399.449 408.537 399.449 406.231 399.449 403.926C403.074 404.804 406.808 405.682 410.432 406.78C410.432 409.086 410.432 411.392 410.432 413.697Z" fill="black"/>
<path d="M258.758 379.772C250.082 382.516 241.405 385.371 232.729 388.335C232.729 385.92 232.729 383.504 232.729 381.089C241.405 378.234 250.082 375.27 258.758 372.525C258.758 374.941 258.758 377.356 258.758 379.772Z" fill="black"/>
<path d="M101.043 311.151C92.3665 311.371 83.6899 310.932 75.0134 309.944C75.0134 307.528 75.0134 305.113 75.0134 302.697C83.6899 303.685 92.3665 304.125 101.043 303.905C101.043 306.32 101.043 308.736 101.043 311.151Z" fill="black"/>
<path d="M105.985 286.558C85.9965 287.436 66.1174 285.57 46.1284 279.531C46.1284 278.323 46.1284 277.225 46.1284 276.018C66.1174 282.056 85.9965 284.033 105.985 283.044C105.985 284.252 105.985 285.35 105.985 286.558Z" fill="black"/>
<path d="M62.7127 555C53.8165 553.243 44.8105 550.828 35.9143 547.424C35.9143 545.558 35.9143 543.801 35.9143 541.935C44.8105 545.338 53.8165 547.754 62.7127 549.51C62.7127 551.377 62.7127 553.243 62.7127 555Z" fill="black"/>
<path d="M346.732 291.938C335.199 292.706 323.667 294.353 312.135 296.659C312.135 295.341 312.135 293.914 312.135 292.596C323.667 290.291 335.199 288.644 346.732 287.875C346.732 289.193 346.732 290.51 346.732 291.938Z" fill="black"/>
<path d="M391.761 307.309C382.865 305.772 373.859 304.893 364.963 304.674C364.963 302.807 364.963 301.05 364.963 299.184C373.859 299.404 382.865 300.282 391.761 301.819C391.761 303.685 391.761 305.442 391.761 307.309Z" fill="black"/>
<path d="M126.743 400.303C113.564 402.059 100.384 402.828 87.2046 402.169C87.2046 399.754 87.2046 397.338 87.2046 394.923C100.384 395.582 113.564 394.813 126.743 393.056C126.743 395.472 126.743 397.887 126.743 400.303Z" fill="black"/>
</svg>
